# xmcd CD database file
#
# Track frame offsets:
#	150
#	16165
#	32587
#	35814
#	52075
#	73216
#	98639
#	112801
#
# Disc length: 2316 seconds
#
# Revision: 0
# Processed by: cddbd v1.5.2PL0 Copyright (c) Steve Scherf et al.
# Submitted via: CDex 1.51
#
DISCID=64090a08
DTITLE=Aardvark - Not For Seal (Live)
DYEAR=2000
DGENRE=Blues
TTITLE0=(As We All Know) A Chicken Can't Fly
TTITLE1=Meeting Johnny C. On The O.B.S.
TTITLE2=C'est Triste, La Vie d'Artiste
TTITLE3=What Makes A Man Fly (Back D. Man Version)
TTITLE4=Going Back To Evergem
TTITLE5=So Glad To See Me (He Broke My Nose)
TTITLE6=Reprah's Mama
TTITLE7=The Funk And How To Shut It
EXTD=YEAR: 2000
EXTT0=
EXTT1=
EXTT2=
EXTT3=
EXTT4=
EXTT5=
EXTT6=
EXTT7=
PLAYORDER=
